<?xml version="1.0" encoding="UTF-8" standalone="no"?>
<!DOCTYPE svg PUBLIC "-//W3C//DTD SVG 1.1//EN" "http://www.w3.org/Graphics/SVG/1.1/DTD/svg11.dtd">
<svg width="100%" height="100%" viewBox="0 0 960 960" version="1.1" xmlns="http://www.w3.org/2000/svg" xmlns:xlink="http://www.w3.org/1999/xlink" xml:space="preserve" xmlns:serif="http://www.serif.com/" style="fill-rule:evenodd;clip-rule:evenodd;stroke-linecap:round;stroke-linejoin:round;stroke-miterlimit:1.5;">
    <g transform="matrix(1,0,0,1,61,-4.26326e-13)">
        <g transform="matrix(1.63031,0,0,1.175,-266.006,-107.5)">
            <path d="M460,116.65C460,107.461 454.623,100 448,100L392,100C385.377,100 380,107.461 380,116.65L380,883.35C380,892.539 385.377,900 392,900L448,900C454.623,900 460,892.539 460,883.35L460,116.65Z" style="fill:none;stroke:black;stroke-width:19.35px;"/>
        </g>
        <g transform="matrix(2.35,0,0,1.175,-567.688,-107.5)">
            <path d="M430,160C430,148.962 425.519,140 420,140C414.481,140 410,148.962 410,160L410,280C410,291.038 414.481,300 420,300C425.519,300 430,291.038 430,280L430,160Z" style="fill:none;stroke:black;stroke-width:6.16px;"/>
        </g>
        <g transform="matrix(3.76,0,0,1.88,-1178.69,-281.4)">
            <ellipse cx="425" cy="230" rx="5" ry="10" style="fill:none;stroke:black;stroke-width:1.78px;"/>
        </g>
        <g transform="matrix(1.63031,0,0,1.11149,-266.006,-72.8851)">
            <rect x="380" y="460" width="80" height="170" style="fill:none;stroke:black;stroke-width:7.83px;"/>
        </g>
        <g transform="matrix(2.35,0,0,2.35,-592.363,-601)">
            <circle cx="430" cy="410" r="10" style="fill:none;stroke:black;stroke-width:2.03px;"/>
        </g>
        <g transform="matrix(3.525,0,0,3.20454,-1079.99,-936.943)">
            <ellipse cx="425" cy="405.5" rx="5" ry="5.5" style="fill:none;stroke:black;stroke-width:1.42px;"/>
        </g>
        <g transform="matrix(2.50666,0,0,1.94482,-672.263,-546.829)">
            <ellipse cx="435" cy="540" rx="15" ry="20" style="fill:none;stroke:black;stroke-width:2.36px;"/>
        </g>
        <g transform="matrix(1.88,0,0,1.46875,-399.663,-289.625)">
            <ellipse cx="435" cy="540" rx="15" ry="20" style="fill:none;stroke:black;stroke-width:5.26px;"/>
        </g>
        <g transform="matrix(1.175,0,0,1.175,-74.1875,-107.5)">
            <ellipse cx="395.5" cy="805" rx="4.5" ry="5" style="fill:none;stroke:black;stroke-width:3.2px;"/>
        </g>
        <g transform="matrix(1.175,0,0,1.175,-74.1875,-107.5)">
            <ellipse cx="444.5" cy="805" rx="4.5" ry="5" style="fill:none;stroke:black;stroke-width:3.2px;"/>
        </g>
    </g>
</svg>
