<?xml version="1.0" encoding="utf-8"?>
<svg width="601" height="337" viewBox="0 0 601 337" fill="none" xmlns="http://www.w3.org/2000/svg">
  <g>
    <g transform="translate(16.959 18.899)">
      <path d="M31.163 43.3195L69.5337 43.3195L69.5337 81.7549L31.163 81.7549L31.163 43.3195L31.163 43.3195ZM50.2423 0L0 26.9685L0 112.333L0 112.758L58.934 112.758L58.934 102.353L10.3876 102.353L10.3876 32.2773L50.2423 11.8916L90.097 32.9143L90.097 81.5425L79.7094 81.5425L79.7094 32.9143L20.7753 32.9143L20.7753 91.9477L69.3217 91.9477L69.3217 112.333L79.7093 112.333L79.7093 91.9477L100.485 91.9477L100.485 26.9685L50.2423 0L50.2423 0Z" fill="#D89185" transform="translate(232.556 0)" />
      <g transform="translate(0 54.362)">
        <path d="M8.26773 16.5633C12.9315 16.5633 16.5354 12.9534 16.5354 8.28167C16.5354 3.60996 12.9315 0 8.26773 0C3.60388 0 0 3.60996 0 8.28167C0 12.741 3.60388 16.5633 8.26773 16.5633C8.26773 16.5633 8.26773 16.5633 8.26773 16.5633Z" fill="#D89185" transform="translate(274.531 0)" />
        <path d="M525.53 73.2609C506.027 73.2609 492.46 59.4581 492.46 39.2848C492.46 19.1115 506.027 5.30875 525.53 5.30875C545.034 5.30875 558.601 19.1115 558.601 39.2848C558.601 59.4581 545.034 73.2609 525.53 73.2609C525.53 73.2609 525.53 73.2609 525.53 73.2609ZM525.53 78.5696C548.214 78.5696 564.325 62.431 564.325 39.2848C564.325 16.1386 548.214 0 525.53 0C502.847 0 486.736 16.1386 486.736 39.2848C486.736 62.431 502.847 78.5696 525.53 78.5696C525.53 78.5696 525.53 78.5696 525.53 78.5696ZM402.363 6.15816C402.363 6.15816 426.318 6.15816 426.318 6.15816C438.613 6.15816 446.245 13.5904 446.245 24.845C446.245 36.3119 438.401 43.5318 426.318 43.5318C426.318 43.5318 402.363 43.5318 402.363 43.5318L402.363 6.15816L402.363 6.15816ZM431.83 47.9912C444.337 45.8677 451.969 37.1613 451.969 24.6326C451.969 10.4052 442.005 1.06176 426.53 1.06176C426.53 1.06176 396.851 1.06176 396.851 1.06176L396.851 77.7202L402.363 77.7202L402.363 48.4159L425.894 48.4159L449.213 77.7203L455.573 77.7203L455.573 77.2956L431.83 47.9912C431.83 47.9912 431.83 47.9912 431.83 47.9912ZM319.473 73.2609C299.97 73.2609 286.402 59.4581 286.402 39.2848C286.402 19.1115 299.97 5.30875 319.473 5.30875C338.977 5.30875 352.544 19.1115 352.544 39.2848C352.544 59.4581 338.977 73.2609 319.473 73.2609C319.473 73.2609 319.473 73.2609 319.473 73.2609ZM319.473 78.5696C342.157 78.5696 358.268 62.431 358.268 39.2848C358.268 16.1386 342.157 0 319.473 0C296.79 0 280.679 16.1386 280.679 39.2848C280.679 62.431 296.79 78.5696 319.473 78.5696C319.473 78.5696 319.473 78.5696 319.473 78.5696ZM236.796 0.849373L236.796 45.443L237.008 65.4039L184.646 0.849373L182.526 0.849373L182.526 77.5079L188.038 77.5079L188.038 33.976L187.826 12.5286L240.188 77.9326L242.308 77.9326L242.308 0.849373L236.796 0.849373L236.796 0.849373ZM103.24 72.6238L103.24 40.5589L139.703 40.5589L139.703 35.4625L103.24 35.4625L103.24 6.15817L141.187 6.15817L141.187 1.06176L97.7287 1.06176L97.7287 77.7202L142.459 77.7202L142.459 72.6238L103.24 72.6238L103.24 72.6238ZM30.315 78.5696C48.3344 78.5696 59.57 70.288 59.57 57.5469C59.57 43.3195 47.2744 38.6478 30.527 36.0996C19.2914 34.4007 6.99577 32.4896 6.99577 19.9609C6.99577 11.0422 15.4755 5.09641 29.255 5.09641C43.4585 5.09641 51.9383 11.0422 52.1503 20.3856C52.1503 20.3856 57.4501 20.3856 57.4501 20.3856C57.0261 8.0693 46.4265 0.212341 29.255 0.212341C12.5076 0.212341 1.69595 8.28166 1.69595 20.1733C1.69595 34.6131 14.4155 38.8601 29.891 40.9836C43.6705 43.1071 54.2702 46.08 54.2702 57.547C54.2702 67.3151 45.3665 73.2609 30.527 73.2609C15.2635 73.2609 5.72381 66.2533 5.51182 56.0605C5.51182 56.0605 0 56.0605 0 56.0605C0.211992 69.4386 11.8716 78.5696 30.315 78.5696C30.315 78.5696 30.315 78.5696 30.315 78.5696Z" fill="#181715" transform="translate(0.636 90.461)" />
        <path d="M525.53 73.2609C506.027 73.2609 492.46 59.4581 492.46 39.2848C492.46 19.1115 506.027 5.30875 525.53 5.30875C545.034 5.30875 558.601 19.1115 558.601 39.2848C558.601 59.4581 545.034 73.2609 525.53 73.2609C525.53 73.2609 525.53 73.2609 525.53 73.2609ZM525.53 78.5696C548.214 78.5696 564.325 62.431 564.325 39.2848C564.325 16.1386 548.214 0 525.53 0C502.847 0 486.736 16.1386 486.736 39.2848C486.736 62.431 502.847 78.5696 525.53 78.5696C525.53 78.5696 525.53 78.5696 525.53 78.5696ZM402.363 6.15816C402.363 6.15816 426.318 6.15816 426.318 6.15816C438.613 6.15816 446.245 13.5904 446.245 24.845C446.245 36.3119 438.401 43.5318 426.318 43.5318C426.318 43.5318 402.363 43.5318 402.363 43.5318L402.363 6.15816L402.363 6.15816ZM431.83 47.9912C444.337 45.8677 451.969 37.1613 451.969 24.6326C451.969 10.4052 442.005 1.06176 426.53 1.06176C426.53 1.06176 396.851 1.06176 396.851 1.06176L396.851 77.7202L402.363 77.7202L402.363 48.4159L425.894 48.4159L449.213 77.7203L455.573 77.7203L455.573 77.2956L431.83 47.9912C431.83 47.9912 431.83 47.9912 431.83 47.9912ZM319.473 73.2609C299.97 73.2609 286.402 59.4581 286.402 39.2848C286.402 19.1115 299.97 5.30875 319.473 5.30875C338.977 5.30875 352.544 19.1115 352.544 39.2848C352.544 59.4581 338.977 73.2609 319.473 73.2609C319.473 73.2609 319.473 73.2609 319.473 73.2609ZM319.473 78.5696C342.157 78.5696 358.268 62.431 358.268 39.2848C358.268 16.1386 342.157 0 319.473 0C296.79 0 280.679 16.1386 280.679 39.2848C280.679 62.431 296.79 78.5696 319.473 78.5696C319.473 78.5696 319.473 78.5696 319.473 78.5696ZM236.796 0.849373L236.796 45.443L237.008 65.4039L184.646 0.849373L182.526 0.849373L182.526 77.5079L188.038 77.5079L188.038 33.976L187.826 12.5286L240.188 77.9326L242.308 77.9326L242.308 0.849373L236.796 0.849373L236.796 0.849373ZM103.24 72.6238L103.24 40.5589L139.703 40.5589L139.703 35.4625L103.24 35.4625L103.24 6.15817L141.187 6.15817L141.187 1.06176L97.7287 1.06176L97.7287 77.7202L142.459 77.7202L142.459 72.6238L103.24 72.6238L103.24 72.6238ZM30.315 78.5696C48.3344 78.5696 59.57 70.288 59.57 57.5469C59.57 43.3195 47.2744 38.6478 30.527 36.0996C19.2914 34.4007 6.99577 32.4896 6.99577 19.9609C6.99577 11.0422 15.4755 5.09641 29.255 5.09641C43.4585 5.09641 51.9383 11.0422 52.1503 20.3856C52.1503 20.3856 57.4501 20.3856 57.4501 20.3856C57.0261 8.0693 46.4265 0.212341 29.255 0.212341C12.5076 0.212341 1.69595 8.28166 1.69595 20.1733C1.69595 34.6131 14.4155 38.8601 29.891 40.9836C43.6705 43.1071 54.2702 46.08 54.2702 57.547C54.2702 67.3151 45.3665 73.2609 30.527 73.2609C15.2635 73.2609 5.72381 66.2533 5.51182 56.0605C5.51182 56.0605 0 56.0605 0 56.0605C0.211992 69.4386 11.8716 78.5696 30.315 78.5696C30.315 78.5696 30.315 78.5696 30.315 78.5696Z" fill="none" stroke-width="0.586" stroke="#181715" transform="translate(0.636 90.461)" />
        <path d="M551.606 13.378L548.638 7.43221L544.822 0.849335L537.614 0.849335L537.614 1.91109L548.426 19.7485L548.426 32.2771L554.998 32.2771L554.998 19.7485L565.597 1.91109L565.597 0.849335L558.602 0.849335L554.786 7.21983L551.818 13.378L551.606 13.378L551.606 13.378ZM508.571 6.58282L508.571 32.0649L514.931 32.0649L514.931 6.58282L523.199 6.58282L523.199 0.849365L500.303 0.849365L500.303 6.58282L508.571 6.58282L508.571 6.58282ZM479.528 26.5438L479.528 5.73343L483.556 5.73343L483.556 0.637024L468.716 0.637024L468.716 5.73343L472.744 5.73343L472.744 26.5438L468.504 26.5438L468.504 31.8525L483.98 31.8525L483.98 26.5438L479.528 26.5438L479.528 26.5438ZM432.678 16.1386L432.678 6.58281C432.678 6.58281 439.461 6.58281 439.461 6.58281C442.217 6.58281 444.125 8.70631 444.125 11.2545C444.125 14.0151 442.429 16.1386 439.461 16.1386C439.461 16.1386 432.678 16.1386 432.678 16.1386L432.678 16.1386ZM444.761 20.598C448.365 18.8992 450.273 15.2892 450.273 11.4669C450.273 5.94577 446.457 0.849365 439.249 0.849365C434.798 0.849365 430.346 0.849365 425.894 0.849365C425.894 0.849365 425.894 32.0649 425.894 32.0649L432.466 32.0649L432.466 21.6597L437.977 21.6597L444.337 32.0649L451.545 32.0649L451.545 31.2155L444.761 20.598C444.761 20.598 444.761 20.598 444.761 20.598ZM393.247 32.4895C399.819 32.4895 405.543 28.6672 405.543 21.6597C405.543 21.6597 405.543 0.849335 405.543 0.849335L398.971 0.849335C398.971 0.849335 398.971 21.6597 398.971 21.6597C398.971 25.0573 396.215 26.7561 393.247 26.7561C390.067 26.7561 387.523 25.0573 387.523 21.6597C387.523 21.6597 387.523 0.849335 387.523 0.849335L380.951 0.849335C380.951 0.849335 380.951 21.6597 380.951 21.6597C380.951 28.6673 386.675 32.4895 393.247 32.4895C393.247 32.4895 393.247 32.4895 393.247 32.4895ZM332.193 16.351C332.193 26.7561 340.037 32.2772 348.092 32.2772C354.664 32.2772 361.236 28.8796 362.508 20.598C362.508 20.598 356.148 20.598 356.148 20.598C355.088 24.4203 351.908 26.1191 348.092 26.1191C342.581 26.1191 338.977 21.4474 338.977 16.1386C338.977 10.1928 342.581 5.94582 348.092 5.94582C351.908 5.94582 354.664 7.43227 355.936 11.0422C355.936 11.0422 362.296 11.0422 362.296 11.0422C360.812 3.39758 354.24 0 347.88 0C339.825 0.212326 332.193 5.94579 332.193 16.351C332.193 16.351 332.193 16.351 332.193 16.351ZM314.598 0.637024L295.518 0.637024L295.518 31.8525L315.021 31.8525L315.021 25.6944L302.302 25.6944L302.302 18.4745L313.962 18.4745L313.962 12.741L302.302 12.741L302.302 6.37051L314.598 6.37051L314.598 0.637024L314.598 0.637024ZM251.424 22.5091C251.424 29.3043 257.783 32.4896 264.143 32.4896C270.291 32.2772 276.651 30.1537 276.651 22.7215C276.651 15.5016 270.927 14.0151 264.355 13.5904C261.175 13.1657 258.419 12.741 258.419 9.98042C258.419 7.64456 260.963 6.15811 263.719 6.15811C266.475 6.15811 269.019 7.21986 269.443 9.76807C269.443 9.76807 275.591 9.76807 275.591 9.76807C275.591 2.7605 269.443 0.212296 263.719 0.212296C257.571 0.212296 251.848 3.1852 251.848 9.98042C251.848 16.3509 257.571 18.0497 263.295 18.6868C266.263 18.8992 270.079 19.1115 270.079 22.5091C270.079 25.6944 266.899 26.3314 264.143 26.3314C261.175 26.3314 257.995 25.0573 257.783 22.2968C257.783 22.2968 251.424 22.2968 251.424 22.2968C251.424 22.2968 251.424 22.5091 251.424 22.5091ZM217.929 19.7486L233.404 19.7486L233.404 14.4398L217.929 14.4398L217.929 19.7486L217.929 19.7486ZM188.25 6.58282L188.25 32.0649L194.609 32.0649L194.609 6.58282L202.877 6.58282L202.877 0.849365L179.77 0.849365L179.77 6.58282L188.25 6.58282L188.25 6.58282ZM145.639 16.1386L145.639 6.58281C145.639 6.58281 152.423 6.58281 152.423 6.58281C155.179 6.58281 157.087 8.70631 157.087 11.2545C157.087 14.0151 155.391 16.1386 152.423 16.1386C152.423 16.1386 145.639 16.1386 145.639 16.1386L145.639 16.1386ZM157.723 20.598C161.327 18.8992 163.235 15.2892 163.235 11.4669C163.235 5.94577 159.419 0.849365 152.211 0.849365C147.759 0.849365 143.307 0.849365 138.855 0.849365C138.855 0.849365 138.855 32.0649 138.855 32.0649L145.427 32.0649L145.427 21.6597L150.939 21.6597L157.299 32.0649L164.507 32.0649L164.507 31.2155L157.723 20.598C157.723 20.598 157.723 20.598 157.723 20.598ZM106.42 10.8298L110.66 21.235L101.969 21.235L106.42 10.8298L106.42 10.8298ZM112.78 26.7562L115.324 31.8526L122.32 31.8526L122.32 31.0032L108.116 0.424728L105.148 0.424728L90.7329 31.0032L90.7329 31.8526L97.5167 31.8526L99.8486 26.7562L112.78 26.7562L112.78 26.7562ZM58.934 15.5016L46.4264 0.637024L43.8825 0.637024L43.8825 31.8525L50.4543 31.8525L50.4543 14.8645L58.298 24.6326L59.358 24.6326L67.2018 14.8645L67.2018 31.8525L73.7735 31.8525L73.7735 0.637024L71.4416 0.637024L58.934 15.5016L58.934 15.5016ZM0 22.5091C0 29.3043 6.35979 32.4896 12.7196 32.4896C18.8674 32.2772 25.2272 30.1537 25.2272 22.7215C25.2272 15.5016 19.5033 14.0151 12.9316 13.5904C9.75167 13.1657 6.99577 12.741 6.99577 9.98042C6.99577 7.64456 9.53968 6.15811 12.2956 6.15811C15.0515 6.15811 17.5954 7.21986 18.0194 9.76807C18.0194 9.76807 24.1672 9.76807 24.1672 9.76807C24.1672 2.7605 18.0194 0.212296 12.2956 0.212296C6.14779 0.212296 0.423983 3.1852 0.423983 9.98042C0.423983 16.3509 6.14779 18.0497 11.8716 18.6868C14.8395 18.8992 18.6554 19.1115 18.6554 22.5091C18.6554 25.6944 15.4755 26.3314 12.7196 26.3314C9.75167 26.3314 6.57178 25.0573 6.35979 22.2968C6.35979 22.2968 0 22.2968 0 22.2968C0 22.2968 0 22.5091 0 22.5091Z" fill="#181715" transform="translate(0 200.884)" />
      </g>
    </g>
  </g>
</svg>